solid ascii
  facet normal 0.000000e+000 -1.000000e+000 0.000000e+000
    outer loop
      vertex   -8.600000e+001 1.765000e+002 -1.110223e-015
      vertex   -5.500000e+001 1.765000e+002 -1.110223e-015
      vertex   -8.600000e+001 1.765000e+002 1.000000e+001
    endloop
  endfacet
  facet normal 0.000000e+000 -1.000000e+000 0.000000e+000
    outer loop
      vertex   -8.600000e+001 1.765000e+002 1.000000e+001
      vertex   -5.500000e+001 1.765000e+002 -1.110223e-015
      vertex   -5.500000e+001 1.765000e+002 1.000000e+001
    endloop
  endfacet
  facet normal 1.000000e+000 0.000000e+000 -0.000000e+000
    outer loop
      vertex   -8.600000e+001 1.155000e+002 -1.110223e-015
      vertex   -8.600000e+001 1.460000e+002 -1.110223e-015
      vertex   -8.600000e+001 1.155000e+002 1.000000e+001
    endloop
  endfacet
  facet normal 1.000000e+000 -0.000000e+000 0.000000e+000
    outer loop
      vertex   -8.600000e+001 1.155000e+002 1.000000e+001
      vertex   -8.600000e+001 1.460000e+002 -1.110223e-015
      vertex   -8.600000e+001 1.460000e+002 1.000000e+001
    endloop
  endfacet
  facet normal 1.000000e+000 -0.000000e+000 0.000000e+000
    outer loop
      vertex   -8.600000e+001 1.460000e+002 1.000000e+001
      vertex   -8.600000e+001 1.460000e+002 -1.110223e-015
      vertex   -8.600000e+001 1.765000e+002 -1.110223e-015
    endloop
  endfacet
  facet normal 1.000000e+000 0.000000e+000 0.000000e+000
    outer loop
      vertex   -8.600000e+001 1.765000e+002 1.000000e+001
      vertex   -8.600000e+001 1.460000e+002 1.000000e+001
      vertex   -8.600000e+001 1.765000e+002 -1.110223e-015
    endloop
  endfacet
  facet normal 0.000000e+000 1.000000e+000 -0.000000e+000
    outer loop
      vertex   -5.500000e+001 1.155000e+002 -1.110223e-015
      vertex   -8.600000e+001 1.155000e+002 -1.110223e-015
      vertex   -5.500000e+001 1.155000e+002 1.000000e+001
    endloop
  endfacet
  facet normal 0.000000e+000 1.000000e+000 -0.000000e+000
    outer loop
      vertex   -5.500000e+001 1.155000e+002 1.000000e+001
      vertex   -8.600000e+001 1.155000e+002 -1.110223e-015
      vertex   -8.600000e+001 1.155000e+002 1.000000e+001
    endloop
  endfacet
  facet normal -1.000000e+000 0.000000e+000 0.000000e+000
    outer loop
      vertex   -5.500000e+001 1.765000e+002 -1.110223e-015
      vertex   -5.500000e+001 1.460000e+002 -1.110223e-015
      vertex   -5.500000e+001 1.765000e+002 1.000000e+001
    endloop
  endfacet
  facet normal -1.000000e+000 -0.000000e+000 0.000000e+000
    outer loop
      vertex   -5.500000e+001 1.765000e+002 1.000000e+001
      vertex   -5.500000e+001 1.460000e+002 -1.110223e-015
      vertex   -5.500000e+001 1.460000e+002 1.000000e+001
    endloop
  endfacet
  facet normal -1.000000e+000 -0.000000e+000 -0.000000e+000
    outer loop
      vertex   -5.500000e+001 1.460000e+002 1.000000e+001
      vertex   -5.500000e+001 1.460000e+002 -1.110223e-015
      vertex   -5.500000e+001 1.155000e+002 -1.110223e-015
    endloop
  endfacet
  facet normal -1.000000e+000 0.000000e+000 -0.000000e+000
    outer loop
      vertex   -5.500000e+001 1.155000e+002 1.000000e+001
      vertex   -5.500000e+001 1.460000e+002 1.000000e+001
      vertex   -5.500000e+001 1.155000e+002 -1.110223e-015
    endloop
  endfacet
  facet normal -3.456694e-015 -1.000000e+000 0.000000e+000
    outer loop
      vertex   -8.900000e+001 1.125000e+002 -1.110223e-015
      vertex   -5.200000e+001 1.125000e+002 -1.110223e-015
      vertex   -8.900000e+001 1.125000e+002 1.000000e+001
    endloop
  endfacet
  facet normal -3.456694e-015 -1.000000e+000 0.000000e+000
    outer loop
      vertex   -8.900000e+001 1.125000e+002 1.000000e+001
      vertex   -5.200000e+001 1.125000e+002 -1.110223e-015
      vertex   -5.200000e+001 1.125000e+002 1.000000e+001
    endloop
  endfacet
  facet normal -1.000000e+000 0.000000e+000 0.000000e+000
    outer loop
      vertex   -8.900000e+001 1.795000e+002 -1.110223e-015
      vertex   -8.900000e+001 1.460000e+002 -1.110223e-015
      vertex   -8.900000e+001 1.795000e+002 1.000000e+001
    endloop
  endfacet
  facet normal -1.000000e+000 -0.000000e+000 0.000000e+000
    outer loop
      vertex   -8.900000e+001 1.795000e+002 1.000000e+001
      vertex   -8.900000e+001 1.460000e+002 -1.110223e-015
      vertex   -8.900000e+001 1.460000e+002 1.000000e+001
    endloop
  endfacet
  facet normal -1.000000e+000 -0.000000e+000 -0.000000e+000
    outer loop
      vertex   -8.900000e+001 1.460000e+002 1.000000e+001
      vertex   -8.900000e+001 1.460000e+002 -1.110223e-015
      vertex   -8.900000e+001 1.125000e+002 -1.110223e-015
    endloop
  endfacet
  facet normal -1.000000e+000 0.000000e+000 -0.000000e+000
    outer loop
      vertex   -8.900000e+001 1.125000e+002 1.000000e+001
      vertex   -8.900000e+001 1.460000e+002 1.000000e+001
      vertex   -8.900000e+001 1.125000e+002 -1.110223e-015
    endloop
  endfacet
  facet normal 0.000000e+000 1.000000e+000 -0.000000e+000
    outer loop
      vertex   -5.200000e+001 1.795000e+002 -1.110223e-015
      vertex   -8.900000e+001 1.795000e+002 -1.110223e-015
      vertex   -5.200000e+001 1.795000e+002 1.000000e+001
    endloop
  endfacet
  facet normal 0.000000e+000 1.000000e+000 -0.000000e+000
    outer loop
      vertex   -5.200000e+001 1.795000e+002 1.000000e+001
      vertex   -8.900000e+001 1.795000e+002 -1.110223e-015
      vertex   -8.900000e+001 1.795000e+002 1.000000e+001
    endloop
  endfacet
  facet normal 1.000000e+000 0.000000e+000 -0.000000e+000
    outer loop
      vertex   -5.200000e+001 1.125000e+002 -1.110223e-015
      vertex   -5.200000e+001 1.460000e+002 -1.110223e-015
      vertex   -5.200000e+001 1.125000e+002 1.000000e+001
    endloop
  endfacet
  facet normal 1.000000e+000 -0.000000e+000 0.000000e+000
    outer loop
      vertex   -5.200000e+001 1.125000e+002 1.000000e+001
      vertex   -5.200000e+001 1.460000e+002 -1.110223e-015
      vertex   -5.200000e+001 1.460000e+002 1.000000e+001
    endloop
  endfacet
  facet normal 1.000000e+000 -0.000000e+000 0.000000e+000
    outer loop
      vertex   -5.200000e+001 1.460000e+002 1.000000e+001
      vertex   -5.200000e+001 1.460000e+002 -1.110223e-015
      vertex   -5.200000e+001 1.795000e+002 -1.110223e-015
    endloop
  endfacet
  facet normal 1.000000e+000 0.000000e+000 0.000000e+000
    outer loop
      vertex   -5.200000e+001 1.795000e+002 1.000000e+001
      vertex   -5.200000e+001 1.460000e+002 1.000000e+001
      vertex   -5.200000e+001 1.795000e+002 -1.110223e-015
    endloop
  endfacet
  facet normal 0.000000e+000 0.000000e+000 1.000000e+000
    outer loop
      vertex   -5.200000e+001 1.460000e+002 1.000000e+001
      vertex   -5.500000e+001 1.155000e+002 1.000000e+001
      vertex   -5.200000e+001 1.125000e+002 1.000000e+001
    endloop
  endfacet
  facet normal 0.000000e+000 0.000000e+000 1.000000e+000
    outer loop
      vertex   -5.200000e+001 1.460000e+002 1.000000e+001
      vertex   -5.500000e+001 1.460000e+002 1.000000e+001
      vertex   -5.500000e+001 1.155000e+002 1.000000e+001
    endloop
  endfacet
  facet normal 0.000000e+000 0.000000e+000 1.000000e+000
    outer loop
      vertex   -5.200000e+001 1.460000e+002 1.000000e+001
      vertex   -5.500000e+001 1.765000e+002 1.000000e+001
      vertex   -5.500000e+001 1.460000e+002 1.000000e+001
    endloop
  endfacet
  facet normal 0.000000e+000 -0.000000e+000 1.000000e+000
    outer loop
      vertex   -5.200000e+001 1.460000e+002 1.000000e+001
      vertex   -5.200000e+001 1.795000e+002 1.000000e+001
      vertex   -5.500000e+001 1.765000e+002 1.000000e+001
    endloop
  endfacet
  facet normal 0.000000e+000 -0.000000e+000 1.000000e+000
    outer loop
      vertex   -5.500000e+001 1.765000e+002 1.000000e+001
      vertex   -5.200000e+001 1.795000e+002 1.000000e+001
      vertex   -8.900000e+001 1.795000e+002 1.000000e+001
    endloop
  endfacet
  facet normal 0.000000e+000 0.000000e+000 1.000000e+000
    outer loop
      vertex   -8.600000e+001 1.765000e+002 1.000000e+001
      vertex   -8.900000e+001 1.795000e+002 1.000000e+001
      vertex   -8.900000e+001 1.460000e+002 1.000000e+001
    endloop
  endfacet
  facet normal 0.000000e+000 0.000000e+000 1.000000e+000
    outer loop
      vertex   -8.600000e+001 1.460000e+002 1.000000e+001
      vertex   -8.900000e+001 1.460000e+002 1.000000e+001
      vertex   -8.600000e+001 1.155000e+002 1.000000e+001
    endloop
  endfacet
  facet normal 0.000000e+000 -0.000000e+000 1.000000e+000
    outer loop
      vertex   -8.600000e+001 1.460000e+002 1.000000e+001
      vertex   -8.600000e+001 1.765000e+002 1.000000e+001
      vertex   -8.900000e+001 1.460000e+002 1.000000e+001
    endloop
  endfacet
  facet normal 0.000000e+000 0.000000e+000 1.000000e+000
    outer loop
      vertex   -5.500000e+001 1.765000e+002 1.000000e+001
      vertex   -8.900000e+001 1.795000e+002 1.000000e+001
      vertex   -8.600000e+001 1.765000e+002 1.000000e+001
    endloop
  endfacet
  facet normal -0.000000e+000 0.000000e+000 1.000000e+000
    outer loop
      vertex   -8.900000e+001 1.460000e+002 1.000000e+001
      vertex   -8.900000e+001 1.125000e+002 1.000000e+001
      vertex   -8.600000e+001 1.155000e+002 1.000000e+001
    endloop
  endfacet
  facet normal 0.000000e+000 0.000000e+000 1.000000e+000
    outer loop
      vertex   -8.600000e+001 1.155000e+002 1.000000e+001
      vertex   -8.900000e+001 1.125000e+002 1.000000e+001
      vertex   -5.200000e+001 1.125000e+002 1.000000e+001
    endloop
  endfacet
  facet normal 0.000000e+000 0.000000e+000 1.000000e+000
    outer loop
      vertex   -5.500000e+001 1.155000e+002 1.000000e+001
      vertex   -8.600000e+001 1.155000e+002 1.000000e+001
      vertex   -5.200000e+001 1.125000e+002 1.000000e+001
    endloop
  endfacet
  facet normal 0.000000e+000 0.000000e+000 -1.000000e+000
    outer loop
      vertex   -5.200000e+001 1.460000e+002 -1.110223e-015
      vertex   -5.500000e+001 1.765000e+002 -1.110223e-015
      vertex   -5.200000e+001 1.795000e+002 -1.110223e-015
    endloop
  endfacet
  facet normal 0.000000e+000 0.000000e+000 -1.000000e+000
    outer loop
      vertex   -5.200000e+001 1.460000e+002 -1.110223e-015
      vertex   -5.500000e+001 1.460000e+002 -1.110223e-015
      vertex   -5.500000e+001 1.765000e+002 -1.110223e-015
    endloop
  endfacet
  facet normal -0.000000e+000 0.000000e+000 -1.000000e+000
    outer loop
      vertex   -5.200000e+001 1.460000e+002 -1.110223e-015
      vertex   -5.500000e+001 1.155000e+002 -1.110223e-015
      vertex   -5.500000e+001 1.460000e+002 -1.110223e-015
    endloop
  endfacet
  facet normal -0.000000e+000 -0.000000e+000 -1.000000e+000
    outer loop
      vertex   -5.200000e+001 1.460000e+002 -1.110223e-015
      vertex   -5.200000e+001 1.125000e+002 -1.110223e-015
      vertex   -5.500000e+001 1.155000e+002 -1.110223e-015
    endloop
  endfacet
  facet normal -0.000000e+000 -0.000000e+000 -1.000000e+000
    outer loop
      vertex   -5.500000e+001 1.155000e+002 -1.110223e-015
      vertex   -5.200000e+001 1.125000e+002 -1.110223e-015
      vertex   -8.900000e+001 1.125000e+002 -1.110223e-015
    endloop
  endfacet
  facet normal -0.000000e+000 0.000000e+000 -1.000000e+000
    outer loop
      vertex   -8.600000e+001 1.155000e+002 -1.110223e-015
      vertex   -8.900000e+001 1.125000e+002 -1.110223e-015
      vertex   -8.900000e+001 1.460000e+002 -1.110223e-015
    endloop
  endfacet
  facet normal -0.000000e+000 0.000000e+000 -1.000000e+000
    outer loop
      vertex   -8.600000e+001 1.460000e+002 -1.110223e-015
      vertex   -8.900000e+001 1.460000e+002 -1.110223e-015
      vertex   -8.600000e+001 1.765000e+002 -1.110223e-015
    endloop
  endfacet
  facet normal -0.000000e+000 -0.000000e+000 -1.000000e+000
    outer loop
      vertex   -8.600000e+001 1.460000e+002 -1.110223e-015
      vertex   -8.600000e+001 1.155000e+002 -1.110223e-015
      vertex   -8.900000e+001 1.460000e+002 -1.110223e-015
    endloop
  endfacet
  facet normal -0.000000e+000 0.000000e+000 -1.000000e+000
    outer loop
      vertex   -5.500000e+001 1.155000e+002 -1.110223e-015
      vertex   -8.900000e+001 1.125000e+002 -1.110223e-015
      vertex   -8.600000e+001 1.155000e+002 -1.110223e-015
    endloop
  endfacet
  facet normal 0.000000e+000 0.000000e+000 -1.000000e+000
    outer loop
      vertex   -8.900000e+001 1.460000e+002 -1.110223e-015
      vertex   -8.900000e+001 1.795000e+002 -1.110223e-015
      vertex   -8.600000e+001 1.765000e+002 -1.110223e-015
    endloop
  endfacet
  facet normal 0.000000e+000 0.000000e+000 -1.000000e+000
    outer loop
      vertex   -8.600000e+001 1.765000e+002 -1.110223e-015
      vertex   -8.900000e+001 1.795000e+002 -1.110223e-015
      vertex   -5.200000e+001 1.795000e+002 -1.110223e-015
    endloop
  endfacet
  facet normal 0.000000e+000 0.000000e+000 -1.000000e+000
    outer loop
      vertex   -5.500000e+001 1.765000e+002 -1.110223e-015
      vertex   -8.600000e+001 1.765000e+002 -1.110223e-015
      vertex   -5.200000e+001 1.795000e+002 -1.110223e-015
    endloop
  endfacet
endsolid
